<?xml version="1.0" encoding="UTF-8"?>
<!DOCTYPE svg PUBLIC "-//W3C//DTD SVG 1.1//EN" "http://www.w3.org/Graphics/SVG/1.1/DTD/svg11.dtd">
<svg xmlns="http://www.w3.org/2000/svg" version="1.1" width="814px" height="585px" style="shape-rendering:geometricPrecision; text-rendering:geometricPrecision; image-rendering:optimizeQuality; fill-rule:evenodd; clip-rule:evenodd" xmlns:xlink="http://www.w3.org/1999/xlink">
<g><path style="opacity:1" fill="#a65d18" d="M -0.5,-0.5 C 270.833,-0.5 542.167,-0.5 813.5,-0.5C 813.5,194.5 813.5,389.5 813.5,584.5C 542.167,584.5 270.833,584.5 -0.5,584.5C -0.5,389.5 -0.5,194.5 -0.5,-0.5 Z"/></g>
<g><path style="opacity:1" fill="#6f390d" d="M 371.5,45.5 C 393.503,46.5645 415.503,46.7312 437.5,46C 445.252,46.71 452.252,49.3767 458.5,54C 470.434,65.6019 483.768,75.2685 498.5,83C 505.489,87.6542 510.656,93.8209 514,101.5C 516.489,110.457 518.823,119.457 521,128.5C 524.667,137.833 528.333,147.167 532,156.5C 533.837,164.146 533.837,171.812 532,179.5C 529.195,186.914 526.195,194.247 523,201.5C 519.798,213.977 516.131,226.31 512,238.5C 509.588,242.916 506.422,246.749 502.5,250C 486.713,259.119 472.046,269.786 458.5,282C 449.511,288.249 439.511,291.082 428.5,290.5C 412.333,289.177 396.166,289.177 380,290.5C 371.768,290.9 364.268,288.733 357.5,284C 344.284,272.117 329.95,261.784 314.5,253C 308.235,248.737 303.402,243.237 300,236.5C 296.688,225.917 293.688,215.251 291,204.5C 287.471,196.246 284.138,187.913 281,179.5C 279.163,171.812 279.163,164.146 281,156.5C 288.467,139.766 294.134,122.433 298,104.5C 301.211,95.5793 306.711,88.4126 314.5,83C 329.232,75.2685 342.566,65.6019 354.5,54C 359.731,50.1023 365.397,47.269 371.5,45.5 Z"/></g>
<g><path style="opacity:1" fill="#f0e1cd" d="M 373.5,47.5 C 384.213,47.5084 394.88,48.175 405.5,49.5C 416.786,47.9285 428.12,47.4285 439.5,48C 445.992,49.5797 451.992,52.2463 457.5,56C 471.257,68.7101 486.257,79.7101 502.5,89C 507.136,93.7714 510.636,99.2714 513,105.5C 516.868,123.437 522.535,140.771 530,157.5C 531.439,162.762 531.772,168.096 531,173.5C 527.23,185.706 522.897,197.706 518,209.5C 516.575,219.202 513.908,228.536 510,237.5C 507.861,240.939 505.361,244.106 502.5,247C 486.257,256.29 471.257,267.29 457.5,280C 449.431,285.768 440.431,288.601 430.5,288.5C 422.338,287.779 414.171,287.112 406,286.5C 395.204,287.948 384.371,288.448 373.5,288C 368.172,286.837 363.172,284.837 358.5,282C 344.954,269.786 330.287,259.119 314.5,250C 306.744,244.334 301.578,236.834 299,227.5C 296.008,211.191 291.008,195.524 284,180.5C 281.736,174.338 281.07,168.004 282,161.5C 285.715,150.402 289.715,139.402 294,128.5C 295.984,116.878 299.651,105.878 305,95.5C 306.715,93.2406 308.548,91.0739 310.5,89C 326.743,79.7101 341.743,68.7101 355.5,56C 361.223,52.3023 367.223,49.469 373.5,47.5 Z"/></g>
<g><path style="opacity:1" fill="#b46a25" d="M 373.5,50.5 C 384.035,50.6727 394.535,51.3394 405,52.5C 413.855,52.1312 422.688,51.4645 431.5,50.5C 439.387,50.805 446.721,52.9717 453.5,57C 467.046,69.214 481.713,79.8806 497.5,89C 502.475,92.9701 506.309,97.8035 509,103.5C 513.197,122.426 519.197,140.759 527,158.5C 529,164.5 529,170.5 527,176.5C 524.222,185.388 520.888,194.055 517,202.5C 514.286,214.026 510.952,225.36 507,236.5C 503.869,240.633 500.369,244.466 496.5,248C 481.768,255.731 468.434,265.398 456.5,277C 448.793,282.597 440.126,285.431 430.5,285.5C 422.022,284.544 413.522,283.878 405,283.5C 394.551,285.018 384.051,285.518 373.5,285C 367.178,283.672 361.511,281.005 356.5,277C 344.566,265.398 331.232,255.731 316.5,248C 311.917,244.088 308.083,239.588 305,234.5C 301.866,224.966 299.2,215.299 297,205.5C 293.056,195.944 289.389,186.277 286,176.5C 284,170.5 284,164.5 286,158.5C 293.803,140.759 299.803,122.426 304,103.5C 306.691,97.8035 310.525,92.9701 315.5,89C 330.57,80.9321 344.236,70.9321 356.5,59C 361.712,55.0607 367.379,52.2273 373.5,50.5 Z"/></g>
<g><path style="opacity:1" fill="#faf1e0" d="M 370.5,53.5 C 394.164,54.4927 417.831,54.6594 441.5,54C 453.201,59.3617 463.534,66.695 472.5,76C 483.498,82.0001 493.665,89.1667 503,97.5C 508.329,107.137 511.663,117.47 513,128.5C 516.804,138.912 520.804,149.245 525,159.5C 525.667,164.833 525.667,170.167 525,175.5C 517.202,193.229 511.202,211.562 507,230.5C 505.048,236.452 501.548,241.285 496.5,245C 480.416,253.709 465.75,264.376 452.5,277C 448.952,278.941 445.286,280.607 441.5,282C 417.83,281.507 394.163,281.507 370.5,282C 359.377,276.212 349.377,268.878 340.5,260C 329.502,254 319.335,246.833 310,238.5C 305.283,228.64 301.95,218.306 300,207.5C 296,196.833 292,186.167 288,175.5C 287.333,170.167 287.333,164.833 288,159.5C 295.473,142.748 301.14,125.414 305,107.5C 307.22,100.899 311.053,95.3991 316.5,91C 331.232,83.2685 344.566,73.6019 356.5,62C 361.064,58.8898 365.731,56.0565 370.5,53.5 Z"/></g>
<g><path style="opacity:1" fill="#723e14" d="M 378.5,74.5 C 380.344,75.2039 380.844,76.5372 380,78.5C 378.833,79.6667 377.667,80.8333 376.5,82C 370.443,84.6786 364.11,86.3453 357.5,87C 354.554,87.8061 351.888,89.1395 349.5,91C 355.295,91.612 360.628,93.4453 365.5,96.5C 371.655,95.8375 377.488,94.1708 383,91.5C 384.767,93.1641 384.267,94.3308 381.5,95C 376.992,96.0422 372.659,97.5422 368.5,99.5C 370.913,102.367 371.913,105.701 371.5,109.5C 370.641,120.165 369.808,130.831 369,141.5C 367.655,149.181 363.155,154.014 355.5,156C 345.389,158.612 336.889,156.112 330,148.5C 328.749,144.918 327.749,141.251 327,137.5C 321.03,153.877 320.03,170.543 324,187.5C 328.673,179.242 335.84,175.242 345.5,175.5C 354.841,174.886 362.674,177.886 369,184.5C 369.121,200.224 368.121,215.89 366,231.5C 364.939,234.562 363.106,237.062 360.5,239C 367.83,244.164 375.83,247.998 384.5,250.5C 384.833,249.333 385.167,248.167 385.5,247C 384.451,237.177 383.951,227.344 384,217.5C 389.828,212.501 396.661,210.168 404.5,210.5C 412.15,210.607 419.483,212.107 426.5,215C 428.919,216.686 429.919,219.019 429.5,222C 428.774,231.168 428.108,240.335 427.5,249.5C 436.621,247.849 444.954,244.349 452.5,239C 447.729,234.955 445.563,229.788 446,223.5C 444.543,210.526 443.876,197.526 444,184.5C 451.143,176.675 459.976,173.842 470.5,176C 479.056,176.186 485.223,180.019 489,187.5C 493.041,170.53 492.041,153.863 486,137.5C 485.642,147.19 480.809,153.356 471.5,156C 461.389,158.612 452.889,156.112 446,148.5C 444.956,146.285 444.29,143.952 444,141.5C 442.719,128.847 442.052,116.181 442,103.5C 442.785,101.714 443.951,100.214 445.5,99C 441.5,98 437.5,97 433.5,96C 431.445,95.3128 429.779,94.1461 428.5,92.5C 429,92.1667 429.5,91.8333 430,91.5C 438.849,97.2956 447.682,97.4622 456.5,92C 458.833,91.6667 461.167,91.3333 463.5,91C 454.622,87.753 445.622,84.753 436.5,82C 435.333,80.8333 434.167,79.6667 433,78.5C 432.219,77.0563 432.386,75.723 433.5,74.5C 435.025,78.191 437.692,80.691 441.5,82C 446.448,83.2563 451.448,84.2563 456.5,85C 460.615,86.2235 464.282,88.2235 467.5,91C 475.123,91.8032 481.123,95.3032 485.5,101.5C 498.002,102.802 501.835,109.135 497,120.5C 493.233,124.096 489.733,127.763 486.5,131.5C 495.055,153.258 495.721,175.258 488.5,197.5C 492.452,200.278 496.286,203.278 500,206.5C 506.932,222.296 501.766,230.963 484.5,232.5C 480.046,239.595 473.546,242.595 465,241.5C 461.959,241.431 458.959,241.098 456,240.5C 446.903,246.298 437.069,250.298 426.5,252.5C 429.337,269.496 422.17,277.496 405,276.5C 389.533,275.959 383.366,267.959 386.5,252.5C 376.387,250.611 367.053,246.778 358.5,241C 351.863,241.441 345.196,241.441 338.5,241C 334.116,239.321 330.783,236.488 328.5,232.5C 311.252,231.002 306.086,222.336 313,206.5C 316.714,203.278 320.548,200.278 324.5,197.5C 317.279,175.258 317.945,153.258 326.5,131.5C 323.267,127.763 319.767,124.096 316,120.5C 311.181,109.123 315.015,102.789 327.5,101.5C 331.888,95.2875 337.888,91.7875 345.5,91C 347.83,88.8328 350.497,87.1662 353.5,86C 360.96,84.4244 368.293,82.4244 375.5,80C 377.607,78.7365 378.607,76.9032 378.5,74.5 Z"/></g>
<g><path style="opacity:1" fill="#ab8969" d="M 488.5,225.5 C 490.857,225.337 493.19,225.503 495.5,226C 494.956,226.717 494.289,227.217 493.5,227.5C 491.833,226.833 490.167,226.167 488.5,225.5 Z"/></g>
<g><path style="opacity:1" fill="#ae8d6e" d="M 324.5,225.5 C 322.833,226.167 321.167,226.833 319.5,227.5C 318.711,227.217 318.044,226.717 317.5,226C 319.81,225.503 322.143,225.337 324.5,225.5 Z"/></g>
<g><path style="opacity:1" fill="#a78463" d="M 314.5,216.5 C 314.664,219.187 314.497,221.854 314,224.5C 313.487,223.473 312.987,222.473 312.5,221.5C 313.167,219.833 313.833,218.167 314.5,216.5 Z"/></g>
<g><path style="opacity:1" fill="#f6ecdb" d="M 394.5,213.5 C 401.508,213.334 408.508,213.5 415.5,214C 419.285,214.373 422.785,215.539 426,217.5C 425.715,233.499 425.048,249.499 424,265.5C 421.622,270.201 417.788,273.034 412.5,274C 404.906,275.457 397.906,274.123 391.5,270C 390.54,268.581 389.707,267.081 389,265.5C 387.952,249.499 387.285,233.499 387,217.5C 389.417,215.872 391.917,214.539 394.5,213.5 Z"/></g>
<g><path style="opacity:1" fill="#6a3408" d="M 402.5,233.5 C 405.93,233.107 409.096,233.773 412,235.5C 412.667,246.5 412.667,257.5 412,268.5C 408.333,272.5 404.667,272.5 401,268.5C 400.333,257.5 400.333,246.5 401,235.5C 401.717,234.956 402.217,234.289 402.5,233.5 Z"/></g>
<g><path style="opacity:1" fill="#faf1e1" d="M 402.5,236.5 C 405.167,236.5 407.833,236.5 410.5,236.5C 410.666,246.839 410.5,257.172 410,267.5C 407.667,270.167 405.333,270.167 403,267.5C 402.5,257.172 402.334,246.839 402.5,236.5 Z"/></g>
<g><path style="opacity:1" fill="#7a471f" d="M 399.5,215.5 C 406.96,215.233 414.293,216.066 421.5,218C 423.283,219.067 423.783,220.567 423,222.5C 412.98,225.584 402.813,226.084 392.5,224C 389.616,222.963 388.95,221.129 390.5,218.5C 393.515,217.182 396.515,216.182 399.5,215.5 Z"/></g>
<g><path style="opacity:1" fill="#f3e8d7" d="M 394.5,218.5 C 402.174,218.334 409.841,218.5 417.5,219C 421.5,220 421.5,221 417.5,222C 409.833,222.667 402.167,222.667 394.5,222C 392.069,220.908 392.069,219.741 394.5,218.5 Z"/></g>
<g><path style="opacity:1" fill="#f7eddc" d="M 486.5,208.5 C 493.603,210.061 496.769,214.394 496,221.5C 493.24,223.703 490.24,224.036 487,222.5C 486.501,217.845 486.334,213.179 486.5,208.5 Z"/></g>
<g><path style="opacity:1" fill="#f7eedd" d="M 324.5,208.5 C 325.805,210.397 326.471,212.731 326.5,215.5C 328.155,222.679 325.489,225.179 318.5,223C 316.556,220.847 316.056,218.347 317,215.5C 319.015,212.588 321.515,210.255 324.5,208.5 Z"/></g>
<g><path style="opacity:1" fill="#f5ebd9" d="M 488.5,225.5 C 490.167,226.167 491.833,226.833 493.5,227.5C 492.181,228.897 490.514,229.563 488.5,229.5C 485.846,228.732 483.179,228.566 480.5,229C 476.131,232.508 471.131,234.341 465.5,234.5C 471.644,235.923 477.144,234.589 482,230.5C 480.545,234.942 477.379,237.776 472.5,239C 464.549,240.766 457.383,239.266 451,234.5C 450.333,233.167 449.667,231.833 449,230.5C 447.293,215.521 446.293,200.521 446,185.5C 451.543,179.649 458.376,176.983 466.5,177.5C 472.08,178.082 477.413,179.582 482.5,182C 484.726,183.62 486.06,185.786 486.5,188.5C 485.504,191.797 485.337,195.131 486,198.5C 489.821,201.743 493.821,204.743 498,207.5C 501.608,212.141 502.274,217.141 500,222.5C 499.08,212.075 493.58,206.742 483.5,206.5C 484.246,207.736 484.579,209.07 484.5,210.5C 478.804,211.755 473.137,212.922 467.5,214C 472.926,215.826 478.259,215.326 483.5,212.5C 484.429,213.689 484.762,215.022 484.5,216.5C 480.345,216.872 476.345,217.872 472.5,219.5C 475.897,220.494 479.23,220.161 482.5,218.5C 483.108,222.103 485.108,224.436 488.5,225.5 Z"/></g>
<g><path style="opacity:1" fill="#7d4c24" d="M 461.5,233.5 C 463.337,233.639 463.67,234.306 462.5,235.5C 461.702,235.043 461.369,234.376 461.5,233.5 Z"/></g>
<g><path style="opacity:1" fill="#754218" d="M 475.5,224.5 C 477.199,224.34 478.866,224.506 480.5,225C 475.561,228.272 470.228,229.105 464.5,227.5C 468.408,226.905 472.074,225.905 475.5,224.5 Z"/></g>
<g><path style="opacity:1" fill="#703c12" d="M 465.5,219.5 C 467.604,219.201 469.604,219.534 471.5,220.5C 470.5,220.833 469.5,221.167 468.5,221.5C 466.97,221.36 465.97,220.693 465.5,219.5 Z"/></g>
<g><path style="opacity:1" fill="#7a4920" d="M 463.5,206.5 C 465.337,206.639 465.67,207.306 464.5,208.5C 463.702,208.043 463.369,207.376 463.5,206.5 Z"/></g>
<g><path style="opacity:1" fill="#7b4a22" d="M 479.5,204.5 C 481.976,205.815 481.642,206.982 478.5,208C 475.167,208.667 471.833,208.667 468.5,208C 472.224,206.832 475.891,205.665 479.5,204.5 Z"/></g>
<g><path style="opacity:1" fill="#744117" d="M 479.5,198.5 C 480.978,198.238 482.311,198.571 483.5,199.5C 478.795,202.412 473.795,203.412 468.5,202.5C 472.407,201.534 476.074,200.201 479.5,198.5 Z"/></g>
<g><path style="opacity:1" fill="#733e14" d="M 459.5,180.5 C 466.489,179.907 473.156,181.074 479.5,184C 484.159,189.367 483.159,193.367 476.5,196C 466.885,200.124 458.051,198.957 450,192.5C 449.333,190.5 449.333,188.5 450,186.5C 452.843,183.837 456.009,181.837 459.5,180.5 Z"/></g>
<g><path style="opacity:1" fill="#a7580c" d="M 458.5,190.5 C 465.031,189.988 471.364,190.822 477.5,193C 469.756,196.242 462.089,196.242 454.5,193C 456.066,192.392 457.4,191.558 458.5,190.5 Z"/></g>
<g><path style="opacity:1" fill="#f1e6d3" d="M 457.5,183.5 C 463.176,183.334 468.843,183.501 474.5,184C 477.339,184.741 479.339,186.407 480.5,189C 480.37,190.059 479.87,190.892 479,191.5C 474.664,189.139 469.998,188.139 465,188.5C 460.432,188.073 456.265,189.073 452.5,191.5C 451.386,190.277 451.219,188.944 452,187.5C 453.812,186.023 455.645,184.69 457.5,183.5 Z"/></g>
<g><path style="opacity:1" fill="#f5ebd9" d="M 319.5,227.5 C 321.167,226.833 322.833,226.167 324.5,225.5C 327.971,224.522 329.805,222.188 330,218.5C 333.346,220.478 336.846,220.811 340.5,219.5C 336.488,218.495 332.488,217.495 328.5,216.5C 328.238,215.022 328.571,213.689 329.5,212.5C 334.717,215.489 340.051,215.989 345.5,214C 340.6,212.88 335.6,211.88 330.5,211C 328.246,209.946 327.913,208.446 329.5,206.5C 322.108,206.041 317.108,209.375 314.5,216.5C 313.833,218.167 313.167,219.833 312.5,221.5C 310.844,216.439 311.677,211.772 315,207.5C 318.898,204.32 322.898,201.32 327,198.5C 323.838,188.319 327.338,181.819 337.5,179C 348.582,175.812 358.416,177.978 367,185.5C 366.707,200.521 365.707,215.521 364,230.5C 361.815,234.857 358.315,237.69 353.5,239C 344.606,241.258 337.106,239.092 331,232.5C 330.333,231.833 330.333,231.167 331,230.5C 335.696,235.187 341.196,236.521 347.5,234.5C 341.869,234.341 336.869,232.508 332.5,229C 329.641,228.447 326.808,228.614 324,229.5C 322.167,229.481 320.667,228.815 319.5,227.5 Z"/></g>
<g><path style="opacity:1" fill="#916641" d="M 349.5,233.5 C 351.337,233.639 351.67,234.306 350.5,235.5C 349.702,235.043 349.369,234.376 349.5,233.5 Z"/></g>
<g><path style="opacity:1" fill="#723f15" d="M 332.5,225.5 C 332.735,224.903 333.235,224.57 334,224.5C 338.778,225.753 343.611,226.753 348.5,227.5C 342.859,229.07 337.526,228.403 332.5,225.5 Z"/></g>
<g><path style="opacity:1" fill="#6f3b10" d="M 341.5,219.5 C 343.604,219.201 345.604,219.534 347.5,220.5C 346.5,220.833 345.5,221.167 344.5,221.5C 342.97,221.36 341.97,220.693 341.5,219.5 Z"/></g>
<g><path style="opacity:1" fill="#7a4a20" d="M 347.5,206.5 C 349.337,206.639 349.67,207.306 348.5,208.5C 347.702,208.043 347.369,207.376 347.5,206.5 Z"/></g>
<g><path style="opacity:1" fill="#78461e" d="M 331.5,204.5 C 335.851,205.747 340.185,206.914 344.5,208C 341.167,208.667 337.833,208.667 334.5,208C 332.574,207.578 331.574,206.411 331.5,204.5 Z"/></g>
<g><path style="opacity:1" fill="#734016" d="M 329.5,198.5 C 334.53,199.674 339.53,201.008 344.5,202.5C 339.714,203.281 335.047,202.614 330.5,200.5C 329.702,200.043 329.369,199.376 329.5,198.5 Z"/></g>
<g><path style="opacity:1" fill="#733f15" d="M 340.5,180.5 C 348.975,179.163 356.475,181.163 363,186.5C 364.538,191.12 363.038,194.287 358.5,196C 348.556,200.191 339.389,199.025 331,192.5C 330.333,190.5 330.333,188.5 331,186.5C 333.843,183.837 337.009,181.837 340.5,180.5 Z"/></g>
<g><path style="opacity:1" fill="#a7590c" d="M 340.5,190.5 C 346.711,190.016 352.711,190.849 358.5,193C 350.833,196.333 343.167,196.333 335.5,193C 337.315,192.243 338.981,191.41 340.5,190.5 Z"/></g>
<g><path style="opacity:1" fill="#f2e7d5" d="M 338.5,183.5 C 343.844,183.334 349.177,183.501 354.5,184C 358.051,184.425 360.384,186.259 361.5,189.5C 361.167,190.167 360.833,190.833 360.5,191.5C 358.833,190.667 357.167,189.833 355.5,189C 349.833,188.333 344.167,188.333 338.5,189C 336.833,189.833 335.167,190.667 333.5,191.5C 332.386,190.277 332.219,188.944 333,187.5C 334.812,186.023 336.645,184.69 338.5,183.5 Z"/></g>
<g><path style="opacity:1" fill="#b46b26" d="M 401.5,119.5 C 413.065,119.032 421.898,123.699 428,133.5C 436.245,148.613 436.578,163.946 429,179.5C 420.11,194.576 407.943,198.076 392.5,190C 381.634,178.731 377.134,165.231 379,149.5C 381.451,135.552 388.951,125.552 401.5,119.5 Z"/></g>
<g><path style="opacity:1" fill="#f6ecda" d="M 409.5,122.5 C 420.148,125.649 426.981,132.649 430,143.5C 434.458,159.765 431.291,174.265 420.5,187C 417.283,189.784 413.616,191.118 409.5,191C 410.591,188.936 410.758,186.769 410,184.5C 405.012,177.364 401.845,169.531 400.5,161C 400.667,159.167 400.833,157.333 401,155.5C 404.885,147.729 408.219,139.729 411,131.5C 411.597,128.319 411.097,125.319 409.5,122.5 Z"/></g>
<g><path style="opacity:1" fill="#703c12" d="M 409.5,174.5 C 410.496,174.414 411.329,174.748 412,175.5C 413.333,178.167 414.667,180.833 416,183.5C 416.781,184.944 416.614,186.277 415.5,187.5C 413.75,183.003 411.75,178.67 409.5,174.5 Z"/></g>
<g><path style="opacity:1" fill="#6f3a10" d="M 417.5,167.5 C 418.496,167.414 419.329,167.748 420,168.5C 422.415,171.595 423.248,174.929 422.5,178.5C 421.016,174.7 419.35,171.033 417.5,167.5 Z"/></g>
<g><path style="opacity:1" fill="#79461e" d="M 409.5,161.5 C 413.032,167.266 416.532,173.266 420,179.5C 420.781,180.944 420.614,182.277 419.5,183.5C 417.135,177.783 413.968,172.45 410,167.5C 409.505,165.527 409.338,163.527 409.5,161.5 Z"/></g>
<g><path style="opacity:1" fill="#79481e" d="M 415.5,163.5 C 417.337,163.639 417.67,164.306 416.5,165.5C 415.702,165.043 415.369,164.376 415.5,163.5 Z"/></g>
<g><path style="opacity:1" fill="#723e14" d="M 420.5,158.5 C 421.496,158.414 422.329,158.748 423,159.5C 426.03,163.387 427.03,167.72 426,172.5C 424.658,167.639 422.824,162.972 420.5,158.5 Z"/></g>
<g><path style="opacity:1" fill="#754219" d="M 423.5,151.5 C 425.411,151.574 426.578,152.574 427,154.5C 428.523,157.491 429.023,160.491 428.5,163.5C 426.446,159.672 424.779,155.672 423.5,151.5 Z"/></g>
<g><path style="opacity:1" fill="#713d13" d="M 407.5,149.5 C 408.376,149.369 409.043,149.702 409.5,150.5C 405.982,157.012 405.649,163.679 408.5,170.5C 408.167,170.833 407.833,171.167 407.5,171.5C 406.029,170.619 405.196,169.286 405,167.5C 403.858,161.172 404.691,155.172 407.5,149.5 Z"/></g>
<g><path style="opacity:1" fill="#966c49" d="M 409.5,145.5 C 411.337,145.639 411.67,146.306 410.5,147.5C 409.702,147.043 409.369,146.376 409.5,145.5 Z"/></g>
<g><path style="opacity:1" fill="#f9efdd" d="M 400.5,122.5 C 406.521,121.358 409.188,123.858 408.5,130C 408.333,131.5 408.167,133 408,134.5C 405,141.167 402,147.833 399,154.5C 397.397,165.356 400.064,175.023 407,183.5C 407.667,186.167 407.667,188.833 407,191.5C 398.874,191.934 392.54,188.601 388,181.5C 379.745,165.995 379.412,150.328 387,134.5C 390.454,129.206 394.954,125.206 400.5,122.5 Z"/></g>
<g><path style="opacity:1" fill="#744118" d="M 385.5,165.5 C 388.261,170.334 391.094,175.334 394,180.5C 396.067,183.07 398.567,185.07 401.5,186.5C 402.583,187.365 402.749,188.365 402,189.5C 392.756,184.087 387.256,176.087 385.5,165.5 Z"/></g>
<g><path style="opacity:1" fill="#f2e7d5" d="M 493.5,111.5 C 494.5,111.5 495.5,111.5 496.5,111.5C 496.474,118.383 493.308,123.383 487,126.5C 486.192,124.421 486.359,122.421 487.5,120.5C 490.748,118.34 492.748,115.34 493.5,111.5 Z"/></g>
<g><path style="opacity:1" fill="#f2e7d5" d="M 316.5,111.5 C 317.675,111.281 318.675,111.614 319.5,112.5C 320.539,115.921 322.539,118.588 325.5,120.5C 326.641,122.421 326.808,124.421 326,126.5C 319.692,123.383 316.526,118.383 316.5,111.5 Z"/></g>
<g><path style="opacity:1" fill="#ebddc9" d="M 489.5,110.5 C 490.376,110.369 491.043,110.702 491.5,111.5C 487.408,118.136 486.742,117.803 489.5,110.5 Z"/></g>
<g><path style="opacity:1" fill="#eadcc9" d="M 321.5,110.5 C 324.955,111.128 326.122,113.128 325,116.5C 323.053,114.937 321.886,112.937 321.5,110.5 Z"/></g>
<g><path style="opacity:1" fill="#e1d0ba" d="M 487.5,104.5 C 490.765,104.299 493.431,105.466 495.5,108C 493.109,108.287 490.776,108.787 488.5,109.5C 487.548,107.955 487.215,106.288 487.5,104.5 Z"/></g>
<g><path style="opacity:1" fill="#e2d1bb" d="M 321.5,104.5 C 322.833,104.5 324.167,104.5 325.5,104.5C 325.785,106.288 325.452,107.955 324.5,109.5C 322.224,108.787 319.891,108.287 317.5,108C 318.731,106.595 320.064,105.429 321.5,104.5 Z"/></g>
<g><path style="opacity:1" fill="#f5ebd9" d="M 470.5,94.5 C 483.985,97.8056 488.151,105.806 483,118.5C 479.503,122.833 475.003,125.5 469.5,126.5C 475.579,127.716 480.412,125.716 484,120.5C 485.176,124.26 484.01,127.093 480.5,129C 477.308,130.357 474.308,131.857 471.5,133.5C 475.834,134.105 479.667,132.772 483,129.5C 483.667,130.5 483.667,131.5 483,132.5C 480.278,135.444 477.111,137.777 473.5,139.5C 477.248,140.057 480.414,138.723 483,135.5C 483.746,138.789 482.58,141.289 479.5,143C 474.952,145.401 470.285,147.401 465.5,149C 471.767,149.578 477.267,147.744 482,143.5C 480.543,149.28 476.71,152.78 470.5,154C 463.785,155.248 457.452,154.248 451.5,151C 449.383,149.269 447.883,147.102 447,144.5C 445.414,131.201 444.414,117.867 444,104.5C 445.483,100.335 448.316,98.8345 452.5,100C 445.635,106.642 445.969,112.976 453.5,119C 463.366,123.299 472.199,121.799 480,114.5C 483.088,106.009 480.255,100.343 471.5,97.5C 470.873,96.5832 470.539,95.5832 470.5,94.5 Z"/></g>
<g><path style="opacity:1" fill="#673103" d="M 467.5,140.5 C 472.021,140.326 472.355,140.993 468.5,142.5C 467.702,142.043 467.369,141.376 467.5,140.5 Z"/></g>
<g><path style="opacity:1" fill="#a95a0d" d="M 461.5,107.5 C 463.833,107.5 466.167,107.5 468.5,107.5C 468.649,111.123 469.816,111.457 472,108.5C 479.359,111.813 479.193,114.98 471.5,118C 464.268,120.754 457.768,119.587 452,114.5C 451.95,110.399 454.116,108.399 458.5,108.5C 458.238,109.978 458.571,111.311 459.5,112.5C 461.217,111.332 461.884,109.665 461.5,107.5 Z"/></g>
<g><path style="opacity:1" fill="#eddfcc" d="M 453.5,101.5 C 456.114,101.277 457.781,102.444 458.5,105C 455.241,106.211 452.408,108.044 450,110.5C 449.481,106.868 450.647,103.868 453.5,101.5 Z"/></g>
<g><path style="opacity:1" fill="#eee2cf" d="M 471.5,100.5 C 476.914,101.737 479.414,105.07 479,110.5C 477.117,107.976 474.617,106.642 471.5,106.5C 471.5,104.5 471.5,102.5 471.5,100.5 Z"/></g>
<g><path style="opacity:1" fill="#f5ebda" d="M 458.5,99.5 C 462.167,99.5 465.833,99.5 469.5,99.5C 469.5,101.167 469.5,102.833 469.5,104.5C 466.482,104.665 463.482,104.498 460.5,104C 459.418,102.67 458.751,101.17 458.5,99.5 Z"/></g>
<g><path style="opacity:1" fill="#f5ebd9" d="M 339.5,94.5 C 341.355,94.272 342.188,94.9387 342,96.5C 338.638,98.35 335.638,100.683 333,103.5C 329.975,110.962 332.142,116.462 339.5,120C 348.836,123.123 357.003,121.29 364,114.5C 366.7,108.733 365.533,103.9 360.5,100C 364.684,98.8345 367.517,100.335 369,104.5C 368.586,117.867 367.586,131.201 366,144.5C 363.993,149.838 360.159,153.004 354.5,154C 344.144,156.389 336.144,153.222 330.5,144.5C 330.833,144.167 331.167,143.833 331.5,143.5C 335.992,147.919 341.325,149.752 347.5,149C 343.845,147.794 340.178,146.461 336.5,145C 333.275,143.277 330.942,140.777 329.5,137.5C 329.667,136.833 329.833,136.167 330,135.5C 332.586,138.723 335.752,140.057 339.5,139.5C 335.899,137.78 332.732,135.447 330,132.5C 329.333,131.5 329.333,130.5 330,129.5C 333.329,132.769 337.163,134.103 341.5,133.5C 336.749,131.71 332.582,129.043 329,125.5C 328.333,123.833 328.333,122.167 329,120.5C 332.599,125.723 337.433,127.723 343.5,126.5C 329.446,123.049 324.946,114.716 330,101.5C 332.825,98.524 335.992,96.1907 339.5,94.5 Z"/></g>
<g><path style="opacity:1" fill="#7a4820" d="M 341.5,140.5 C 343.288,140.215 344.955,140.548 346.5,141.5C 345.667,141.833 344.833,142.167 344,142.5C 342.624,142.316 341.791,141.649 341.5,140.5 Z"/></g>
<g><path style="opacity:1" fill="#a95a0d" d="M 344.5,107.5 C 346.833,107.5 349.167,107.5 351.5,107.5C 351.116,109.665 351.783,111.332 353.5,112.5C 354.429,111.311 354.762,109.978 354.5,108.5C 363.321,110.794 363.655,113.961 355.5,118C 347.476,121.161 340.809,119.495 335.5,113C 337.366,108.876 340.033,108.042 343.5,110.5C 344.386,109.675 344.719,108.675 344.5,107.5 Z"/></g>
<g><path style="opacity:1" fill="#ebdeca" d="M 356.5,101.5 C 361.553,102.39 363.72,105.39 363,110.5C 360.559,108.031 357.726,106.198 354.5,105C 355.305,103.887 355.972,102.721 356.5,101.5 Z"/></g>
<g><path style="opacity:1" fill="#efe3d1" d="M 339.5,100.5 C 340.649,100.791 341.316,101.624 341.5,103C 341.333,103.833 341.167,104.667 341,105.5C 338.314,106.676 335.981,108.343 334,110.5C 333.365,108.365 333.699,106.365 335,104.5C 336.667,103.267 338.167,101.933 339.5,100.5 Z"/></g>
<g><path style="opacity:1" fill="#f5ebda" d="M 343.5,99.5 C 347.226,99.1774 350.893,99.5108 354.5,100.5C 353.96,101.748 353.293,102.915 352.5,104C 349.518,104.498 346.518,104.665 343.5,104.5C 343.5,102.833 343.5,101.167 343.5,99.5 Z"/></g>
<g><path style="opacity:1" fill="#efe3d1" d="M 457.5,93.5 C 461.635,92.8898 465.301,93.7232 468.5,96C 464.009,96.1452 459.676,96.9785 455.5,98.5C 454.062,98.2811 452.729,97.7811 451.5,97C 453.432,95.5415 455.432,94.3748 457.5,93.5 Z"/></g>
<g><path style="opacity:1" fill="#eee2cf" d="M 345.5,93.5 C 351.269,92.8955 356.602,94.0622 361.5,97C 360.271,97.7811 358.938,98.2811 357.5,98.5C 353.248,97.2496 348.914,96.4163 344.5,96C 345.252,95.3292 345.586,94.4959 345.5,93.5 Z"/></g>
<g><path style="opacity:1" fill="#78451d" d="M 403.5,62.5 C 417.737,63.3515 423.57,70.6849 421,84.5C 414.242,95.4821 405.742,97.1488 395.5,89.5C 387.367,77.4086 390.034,68.4086 403.5,62.5 Z"/></g>
<g><path style="opacity:1" fill="#f9f0e0" d="M 401.5,65.5 C 414.178,64.3457 420.011,70.0123 419,82.5C 415.712,90.276 409.879,93.1093 401.5,91C 394.547,87.1579 392.047,81.3246 394,73.5C 396.028,70.3078 398.528,67.6411 401.5,65.5 Z"/></g>
<g><path style="opacity:1" fill="#e4d5c5" d="M 270.5,322.5 C 269.566,323.568 269.232,324.901 269.5,326.5C 273.5,326.5 277.5,326.5 281.5,326.5C 281.5,330.167 281.5,333.833 281.5,337.5C 280.167,337.5 278.833,337.5 277.5,337.5C 275.167,337.5 272.833,337.5 270.5,337.5C 270.5,348.833 270.5,360.167 270.5,371.5C 265.5,371.5 260.5,371.5 255.5,371.5C 255.5,360.167 255.5,348.833 255.5,337.5C 252.167,337.5 248.833,337.5 245.5,337.5C 245.5,333.833 245.5,330.167 245.5,326.5C 249.167,326.5 252.833,326.5 256.5,326.5C 256.5,323.833 256.5,321.167 256.5,318.5C 258.018,313.483 261.352,310.316 266.5,309C 272.522,308.425 278.522,308.591 284.5,309.5C 283.833,313.167 283.167,316.833 282.5,320.5C 278.869,319.588 275.203,319.421 271.5,320C 270.748,320.671 270.414,321.504 270.5,322.5 Z"/></g>
<g><path style="opacity:1" fill="#e4d6c6" d="M 515.5,308.5 C 527.044,307.168 536.878,310.502 545,318.5C 547.035,321.561 548.201,324.895 548.5,328.5C 543.415,329.117 538.415,330.117 533.5,331.5C 533.225,326.772 530.892,323.606 526.5,322C 517.919,320.041 512.086,323.208 509,331.5C 507.874,339.045 508.54,346.379 511,353.5C 515.959,359.615 522.126,361.115 529.5,358C 531.787,355.93 533.453,353.43 534.5,350.5C 539.449,349.904 544.449,349.904 549.5,350.5C 548.341,360.675 543.008,367.508 533.5,371C 507.951,375.898 494.284,365.398 492.5,339.5C 493.031,323.663 500.697,313.33 515.5,308.5 Z"/></g>
<g><path style="opacity:1" fill="#e4d6c7" d="M 134.5,366.5 C 135.497,348.007 135.83,329.341 135.5,310.5C 140.167,310.5 144.833,310.5 149.5,310.5C 149.167,318.59 149.501,325.923 150.5,332.5C 157.485,325.512 164.152,318.178 170.5,310.5C 177.142,309.336 183.808,309.169 190.5,310C 182.284,317.714 174.617,325.881 167.5,334.5C 175.833,346.5 184.167,358.5 192.5,370.5C 186.167,371.833 179.833,371.833 173.5,370.5C 168.198,361.368 162.698,352.368 157,343.5C 154.667,345.833 152.333,348.167 150,350.5C 149.377,357.523 149.543,364.523 150.5,371.5C 145.167,371.5 139.833,371.5 134.5,371.5C 134.5,369.833 134.5,368.167 134.5,366.5 Z"/></g>
<g><path style="opacity:1" fill="#b9814d" d="M 150.5,332.5 C 149.501,325.923 149.167,318.59 149.5,310.5C 144.833,310.5 140.167,310.5 135.5,310.5C 135.83,329.341 135.497,348.007 134.5,366.5C 134.5,347.5 134.5,328.5 134.5,309.5C 139.833,309.5 145.167,309.5 150.5,309.5C 150.5,317.167 150.5,324.833 150.5,332.5 Z"/></g>
<g><path style="opacity:1" fill="#c69a6f" d="M 393.5,309.5 C 398.833,309.5 404.167,309.5 409.5,309.5C 409.5,313.5 409.5,317.5 409.5,321.5C 404.167,321.5 398.833,321.5 393.5,321.5C 393.5,317.5 393.5,313.5 393.5,309.5 Z"/></g>
<g><path style="opacity:1" fill="#e5d9ca" d="M 394.5,310.5 C 399.167,310.5 403.833,310.5 408.5,310.5C 408.5,313.833 408.5,317.167 408.5,320.5C 403.833,320.5 399.167,320.5 394.5,320.5C 394.5,317.167 394.5,313.833 394.5,310.5 Z"/></g>
<g><path style="opacity:1" fill="#c59a71" d="M 623.5,310.5 C 624.482,313.962 624.815,317.629 624.5,321.5C 619.167,321.5 613.833,321.5 608.5,321.5C 608.5,317.5 608.5,313.5 608.5,309.5C 613.695,309.179 618.695,309.513 623.5,310.5 Z"/></g>
<g><path style="opacity:1" fill="#e5d9ca" d="M 623.5,310.5 C 623.5,313.833 623.5,317.167 623.5,320.5C 618.833,320.5 614.167,320.5 609.5,320.5C 609.5,317.167 609.5,313.833 609.5,310.5C 614.167,310.5 618.833,310.5 623.5,310.5 Z"/></g>
<g><path style="opacity:1" fill="#e4d5c5" d="M 210.5,325.5 C 216.842,325.334 223.175,325.5 229.5,326C 233.493,326.998 236.659,329.165 239,332.5C 240.207,345.429 241.04,358.429 241.5,371.5C 236.5,371.5 231.5,371.5 226.5,371.5C 226.649,370.448 226.483,369.448 226,368.5C 216.722,374.136 207.722,373.803 199,367.5C 192.808,354.385 196.975,346.218 211.5,343C 216.489,342.501 221.489,342.334 226.5,342.5C 227.145,339.453 226.145,337.287 223.5,336C 218.383,334.449 214.383,335.783 211.5,340C 206.625,340.354 201.958,339.521 197.5,337.5C 200.03,331.425 204.364,327.425 210.5,325.5 Z"/></g>
<g><path style="opacity:1" fill="#be8a5a" d="M 256.5,318.5 C 256.5,321.167 256.5,323.833 256.5,326.5C 252.833,326.5 249.167,326.5 245.5,326.5C 248.625,325.521 251.958,325.187 255.5,325.5C 255.198,322.941 255.532,320.607 256.5,318.5 Z"/></g>
<g><path style="opacity:1" fill="#e4d6c7" d="M 333.5,352.5 C 322.5,352.5 311.5,352.5 300.5,352.5C 300.263,353.791 300.596,354.791 301.5,355.5C 302.885,359.88 305.885,361.88 310.5,361.5C 315.503,362.184 318.503,360.184 319.5,355.5C 323.706,356.968 328.039,357.968 332.5,358.5C 330.848,364.326 327.181,368.493 321.5,371C 296.703,375.871 285.536,365.705 288,340.5C 295.631,324.843 307.464,320.677 323.5,328C 331.117,334.403 334.451,342.57 333.5,352.5 Z"/></g>
<g><path style="opacity:1" fill="#e4d6c7" d="M 362.5,325.5 C 367.599,325.175 372.599,325.675 377.5,327C 380.695,328.695 383.028,331.195 384.5,334.5C 385.48,346.783 385.813,359.116 385.5,371.5C 380.5,371.5 375.5,371.5 370.5,371.5C 371.532,361.522 371.699,351.522 371,341.5C 367.438,336.826 363.271,336.326 358.5,340C 356.951,341.214 355.785,342.714 355,344.5C 354.5,353.494 354.334,362.494 354.5,371.5C 349.5,371.5 344.5,371.5 339.5,371.5C 340.416,356.525 340.749,341.525 340.5,326.5C 345.167,326.5 349.833,326.5 354.5,326.5C 354.343,327.873 354.51,329.207 355,330.5C 357.479,328.686 359.979,327.019 362.5,325.5 Z"/></g>
<g><path style="opacity:1" fill="#e4d6c6" d="M 432.5,324.5 C 456.024,323.515 465.857,334.515 462,357.5C 455.58,370.757 445.08,375.59 430.5,372C 416.983,365.135 412.149,354.301 416,339.5C 419.19,331.843 424.69,326.843 432.5,324.5 Z"/></g>
<g><path style="opacity:1" fill="#e4d6c7" d="M 572.5,324.5 C 595.998,324.161 605.498,335.495 601,358.5C 593.528,371.968 582.361,376.135 567.5,371C 556.074,363.963 551.908,353.797 555,340.5C 558.34,332.277 564.174,326.943 572.5,324.5 Z"/></g>
<g><path style="opacity:1" fill="#e5d8ca" d="M 677.5,367.5 C 677.5,368.5 677.5,369.5 677.5,370.5C 672.833,370.5 668.167,370.5 663.5,370.5C 663.5,369.5 663.5,368.5 663.5,367.5C 663.666,358.494 663.5,349.494 663,340.5C 659.974,337.136 656.474,336.636 652.5,339C 650,340.167 648.167,342 647,344.5C 646.5,351.826 646.334,359.159 646.5,366.5C 646.5,367.833 646.5,369.167 646.5,370.5C 641.833,370.5 637.167,370.5 632.5,370.5C 632.5,369.167 632.5,367.833 632.5,366.5C 632.5,353.167 632.5,339.833 632.5,326.5C 637.167,326.5 641.833,326.5 646.5,326.5C 646.34,328.199 646.506,329.866 647,331.5C 655.414,324.282 664.414,323.615 674,329.5C 675,331.167 676,332.833 677,334.5C 677.5,345.495 677.667,356.495 677.5,367.5 Z"/></g>
<g><path style="opacity:1" fill="#c09061" d="M 270.5,322.5 C 270.5,323.5 270.5,324.5 270.5,325.5C 274.5,325.5 278.5,325.5 282.5,325.5C 282.5,329.833 282.5,334.167 282.5,338.5C 280.585,338.784 278.919,338.451 277.5,337.5C 278.833,337.5 280.167,337.5 281.5,337.5C 281.5,333.833 281.5,330.167 281.5,326.5C 277.5,326.5 273.5,326.5 269.5,326.5C 269.232,324.901 269.566,323.568 270.5,322.5 Z"/></g>
<g><path style="opacity:1" fill="#e5d7c8" d="M 394.5,326.5 C 399.167,326.5 403.833,326.5 408.5,326.5C 408.5,341.5 408.5,356.5 408.5,371.5C 403.5,371.5 398.5,371.5 393.5,371.5C 394.416,356.525 394.749,341.525 394.5,326.5 Z"/></g>
<g><path style="opacity:1" fill="#e5d9ca" d="M 623.5,330.5 C 623.5,342.5 623.5,354.5 623.5,366.5C 623.5,367.833 623.5,369.167 623.5,370.5C 618.833,370.5 614.167,370.5 609.5,370.5C 609.5,369.167 609.5,367.833 609.5,366.5C 609.5,353.167 609.5,339.833 609.5,326.5C 614.167,326.5 618.833,326.5 623.5,326.5C 623.5,327.833 623.5,329.167 623.5,330.5 Z"/></g>
<g><path style="opacity:1" fill="#a8611e" d="M 306.5,335.5 C 309.941,335.301 313.274,335.801 316.5,337C 317.872,338.242 318.872,339.742 319.5,341.5C 313.537,342.496 307.537,342.829 301.5,342.5C 302.002,339.331 303.669,336.998 306.5,335.5 Z"/></g>
<g><path style="opacity:1" fill="#a75f1c" d="M 436.5,335.5 C 442.843,334.755 447.01,337.422 449,343.5C 450.754,350.915 448.588,356.748 442.5,361C 436.27,362.636 432.103,360.469 430,354.5C 428.909,348.903 429.576,343.57 432,338.5C 433.652,337.601 435.152,336.601 436.5,335.5 Z"/></g>
<g><path style="opacity:1" fill="#a75f1b" d="M 575.5,335.5 C 582.348,334.855 586.515,337.855 588,344.5C 589.109,350.229 587.942,355.395 584.5,360C 576.742,363.585 571.575,361.418 569,353.5C 566.719,345.708 568.885,339.708 575.5,335.5 Z"/></g>
<g><path style="opacity:1" fill="#b4783f" d="M 623.5,330.5 C 623.5,329.167 623.5,327.833 623.5,326.5C 618.833,326.5 614.167,326.5 609.5,326.5C 609.5,339.833 609.5,353.167 609.5,366.5C 609.167,366.5 608.833,366.5 608.5,366.5C 608.5,352.833 608.5,339.167 608.5,325.5C 613.833,325.5 619.167,325.5 624.5,325.5C 624.784,327.415 624.451,329.081 623.5,330.5 Z"/></g>
<g><path style="opacity:1" fill="#a8611f" d="M 217.5,351.5 C 220.5,351.5 223.5,351.5 226.5,351.5C 226.782,358.716 223.282,362.05 216,361.5C 214.5,361.333 213,361.167 211.5,361C 209.966,355.686 211.966,352.52 217.5,351.5 Z"/></g>
<g><path style="opacity:1" fill="#bf8e5f" d="M 333.5,352.5 C 322.628,352.842 311.961,353.842 301.5,355.5C 300.596,354.791 300.263,353.791 300.5,352.5C 311.5,352.5 322.5,352.5 333.5,352.5 Z"/></g>
<g><path style="opacity:1" fill="#cfad8a" d="M 608.5,366.5 C 608.833,366.5 609.167,366.5 609.5,366.5C 609.5,367.833 609.5,369.167 609.5,370.5C 614.167,370.5 618.833,370.5 623.5,370.5C 623.5,369.167 623.5,367.833 623.5,366.5C 624.451,367.919 624.784,369.585 624.5,371.5C 619.167,371.5 613.833,371.5 608.5,371.5C 608.5,369.833 608.5,368.167 608.5,366.5 Z"/></g>
<g><path style="opacity:1" fill="#cea986" d="M 632.5,366.5 C 632.5,367.833 632.5,369.167 632.5,370.5C 637.167,370.5 641.833,370.5 646.5,370.5C 646.5,369.167 646.5,367.833 646.5,366.5C 647.451,367.919 647.784,369.585 647.5,371.5C 642.167,371.5 636.833,371.5 631.5,371.5C 631.216,369.585 631.549,367.919 632.5,366.5 Z"/></g>
<g><path style="opacity:1" fill="#cfac8a" d="M 663.5,367.5 C 663.5,368.5 663.5,369.5 663.5,370.5C 668.167,370.5 672.833,370.5 677.5,370.5C 677.5,369.5 677.5,368.5 677.5,367.5C 678.434,368.568 678.768,369.901 678.5,371.5C 673.167,371.5 667.833,371.5 662.5,371.5C 662.232,369.901 662.566,368.568 663.5,367.5 Z"/></g>
</svg>
